  0
SECTION
  2
HEADER
  9
$ACADVER
  1
AC1009
  9
$DWGCODEPAGE
  3
ansi_1252
  9
$INSBASE
 10
0.0
 20
0.0
 30
0.0
  9
$EXTMIN
 10
-198.05008
 20
0.0
 30
117.0
  9
$EXTMAX
 10
564.94992
 20
0.0
 30
636.1999999999999
  9
$LIMMIN
 10
0.0
 20
0.0
  9
$LIMMAX
 10
12.0
 20
9.0
  9
$ORTHOMODE
 70
     0
  9
$REGENMODE
 70
     1
  9
$FILLMODE
 70
     1
  9
$QTEXTMODE
 70
     0
  9
$MIRRTEXT
 70
     1
  9
$DRAGMODE
 70
     2
  9
$LTSCALE
 40
1.0
  9
$OSMODE
 70
    37
  9
$ATTMODE
 70
     1
  9
$TEXTSIZE
 40
0.2
  9
$TRACEWID
 40
0.05
  9
$TEXTSTYLE
  7
STANDARD
  9
$CLAYER
  8
DEFAULT
  9
$CELTYPE
  6
BYLAYER
  9
$CECOLOR
 62
   256
  9
$DIMSCALE
 40
1.0
  9
$DIMASZ
 40
0.18
  9
$DIMEXO
 40
0.0625
  9
$DIMDLI
 40
0.38
  9
$DIMRND
 40
0.0
  9
$DIMDLE
 40
0.0
  9
$DIMEXE
 40
0.18
  9
$DIMTP
 40
0.0
  9
$DIMTM
 40
0.0
  9
$DIMTXT
 40
0.18
  9
$DIMCEN
 40
0.09
  9
$DIMTSZ
 40
0.0
  9
$DIMTOL
 70
     0
  9
$DIMLIM
 70
     0
  9
$DIMTIH
 70
     1
  9
$DIMTOH
 70
     1
  9
$DIMSE1
 70
     0
  9
$DIMSE2
 70
     0
  9
$DIMTAD
 70
     0
  9
$DIMZIN
 70
     0
  9
$DIMBLK
  1

  9
$DIMASO
 70
     1
  9
$DIMSHO
 70
     1
  9
$DIMPOST
  1

  9
$DIMAPOST
  1

  9
$DIMALT
 70
     0
  9
$DIMALTD
 70
     2
  9
$DIMALTF
 40
25.4
  9
$DIMLFAC
 40
1.0
  9
$DIMTOFL
 70
     0
  9
$DIMTVP
 40
0.0
  9
$DIMTIX
 70
     0
  9
$DIMSOXD
 70
     0
  9
$DIMSAH
 70
     0
  9
$DIMBLK1
  1

  9
$DIMBLK2
  1

  9
$DIMSTYLE
  2
STANDARD
  9
$DIMCLRD
 70
     0
  9
$DIMCLRE
 70
     0
  9
$DIMCLRT
 70
     0
  9
$DIMTFAC
 40
1.0
  9
$DIMGAP
 40
0.09
  9
$LUNITS
 70
     2
  9
$LUPREC
 70
     3
  9
$SKETCHINC
 40
0.1
  9
$FILLETRAD
 40
0.5
  9
$AUNITS
 70
     0
  9
$AUPREC
 70
     0
  9
$MENU
  1
.
  9
$ELEVATION
 40
0.0
  9
$PELEVATION
 40
0.0
  9
$THICKNESS
 40
0.0
  9
$LIMCHECK
 70
     0
  9
$CHAMFERA
 40
0.0
  9
$CHAMFERB
 40
0.0
  9
$SKPOLY
 70
     0
  9
$TDCREATE
 40
2458528.998675347
  9
$TDUPDATE
 40
2458528.998802928
  9
$TDINDWG
 40
0.0000000116
  9
$TDUSRTIMER
 40
0.0000000116
  9
$USRTIMER
 70
     1
  9
$ANGBASE
 50
0.0
  9
$ANGDIR
 70
     0
  9
$PDMODE
 70
     0
  9
$PDSIZE
 40
0.0
  9
$PLINEWID
 40
0.0
  9
$COORDS
 70
     1
  9
$SPLFRAME
 70
     0
  9
$SPLINETYPE
 70
     6
  9
$SPLINESEGS
 70
     8
  9
$ATTDIA
 70
     0
  9
$ATTREQ
 70
     1
  9
$HANDLING
 70
     1
  9
$HANDSEED
  5
2B3
  9
$SURFTAB1
 70
     6
  9
$SURFTAB2
 70
     6
  9
$SURFTYPE
 70
     6
  9
$SURFU
 70
     6
  9
$SURFV
 70
     6
  9
$UCSNAME
  2

  9
$UCSORG
 10
0.0
 20
0.0
 30
0.0
  9
$UCSXDIR
 10
1.0
 20
0.0
 30
0.0
  9
$UCSYDIR
 10
0.0
 20
1.0
 30
0.0
  9
$PUCSNAME
  2

  9
$PUCSORG
 10
0.0
 20
0.0
 30
0.0
  9
$PUCSXDIR
 10
1.0
 20
0.0
 30
0.0
  9
$PUCSYDIR
 10
0.0
 20
1.0
 30
0.0
  9
$USERI1
 70
     0
  9
$USERI2
 70
     0
  9
$USERI3
 70
     0
  9
$USERI4
 70
     0
  9
$USERI5
 70
     0
  9
$USERR1
 40
0.0
  9
$USERR2
 40
0.0
  9
$USERR3
 40
0.0
  9
$USERR4
 40
0.0
  9
$USERR5
 40
0.0
  9
$WORLDVIEW
 70
     1
  9
$SHADEDGE
 70
     3
  9
$SHADEDIF
 70
    70
  9
$TILEMODE
 70
     1
  9
$MAXACTVP
 70
    64
  9
$PLIMCHECK
 70
     0
  9
$PEXTMIN
 10
1.000000000000000E+20
 20
1.000000000000000E+20
 30
1.000000000000000E+20
  9
$PEXTMAX
 10
-1.000000000000000E+20
 20
-1.000000000000000E+20
 30
-1.000000000000000E+20
  9
$PLIMMIN
 10
0.0
 20
0.0
  9
$PLIMMAX
 10
12.0
 20
9.0
  9
$UNITMODE
 70
     0
  9
$VISRETAIN
 70
     1
  9
$PLINEGEN
 70
     0
  9
$PSLTSCALE
 70
     1
  0
ENDSEC
  0
SECTION
  2
TABLES
  0
TABLE
  2
VPORT
 70
     1
  0
VPORT
  2
*ACTIVE
 70
     0
 10
0.0
 20
0.0
 11
1.0
 21
1.0
 12
183.44992
 22
0.0
 13
0.0
 23
0.0
 14
0.5
 24
0.5
 15
0.5
 25
0.5
 16
0.0
 26
0.0
 36
1.0
 17
0.0
 27
0.0
 37
0.0
 40
10.0
 41
1.6
 42
50.0
 43
0.0
 44
0.0
 50
0.0
 51
0.0
 71
     0
 72
   100
 73
     1
 74
     3
 75
     0
 76
     0
 77
     0
 78
     0
  0
ENDTAB
  0
TABLE
  2
LTYPE
 70
     1
  0
LTYPE
  2
CONTINUOUS
 70
     0
  3
Solid line
 72
    65
 73
     0
 40
0.0
  0
ENDTAB
  0
TABLE
  2
LAYER
 70
     2
  0
LAYER
  2
0
 70
     0
 62
     7
  6
CONTINUOUS
  0
LAYER
  2
DEFAULT
 70
     0
 62
     7
  6
CONTINUOUS
  0
ENDTAB
  0
TABLE
  2
STYLE
 70
     1
  0
STYLE
  2
STANDARD
 70
     0
 40
0.0
 41
1.0
 50
0.0
 71
     0
 42
0.2
  3
txt
  4

  0
ENDTAB
  0
TABLE
  2
VIEW
 70
     0
  0
ENDTAB
  0
TABLE
  2
UCS
 70
     0
  0
ENDTAB
  0
TABLE
  2
APPID
 70
     1
  0
APPID
  2
ACAD
 70
     0
  0
ENDTAB
  0
TABLE
  2
DIMSTYLE
 70
     1
  0
DIMSTYLE
  2
STANDARD
 70
     0
  3

  4

  5

  6

  7

 40
1.0
 41
0.18
 42
0.0625
 43
0.38
 44
0.18
 45
0.0
 46
0.0
 47
0.0
 48
0.0
140
0.18
141
0.09
142
0.0
143
25.4
144
1.0
145
0.0
146
1.0
147
0.09
 71
     0
 72
     0
 73
     1
 74
     1
 75
     0
 76
     0
 77
     0
 78
     0
170
     0
171
     2
172
     0
173
     0
174
     0
175
     0
176
     0
177
     0
178
     0
  0
ENDTAB
  0
ENDSEC
  0
SECTION
  2
BLOCKS
  0
BLOCK
  8
0
  2
$MODEL_SPACE
 70
     0
 10
0.0
 20
0.0
 30
0.0
  3
$MODEL_SPACE
  1

  0
ENDBLK
  5
21
  8
0
  0
BLOCK
 67
     1
  8
0
  2
$PAPER_SPACE
 70
     0
 10
0.0
 20
0.0
 30
0.0
  3
$PAPER_SPACE
  1

  0
ENDBLK
  5
1D
 67
     1
  8
0
  0
ENDSEC
  0
SECTION
  2
ENTITIES
  0
CIRCLE
  5
6B
  8
DEFAULT
 10
-138.69992
 20
587.0
 30
0.0
 40
2.5
210
0.0
220
1.0
230
0.0
  0
CIRCLE
  5
6C
  8
DEFAULT
 10
-138.69992
 20
614.6
 30
0.0
 40
2.5
210
0.0
220
1.0
230
0.0
  0
CIRCLE
  5
6D
  8
DEFAULT
 10
-138.69992
 20
544.8
 30
0.0
 40
2.5
210
0.0
220
1.0
230
0.0
  0
CIRCLE
  5
6E
  8
DEFAULT
 10
-138.69992
 20
518.2
 30
0.0
 40
2.5
210
0.0
220
1.0
230
0.0
  0
CIRCLE
  5
6F
  8
DEFAULT
 10
-138.69992
 20
491.6
 30
0.0
 40
2.5
210
0.0
220
1.0
230
0.0
  0
CIRCLE
  5
70
  8
DEFAULT
 10
-138.69992
 20
326.4
 30
0.0
 40
2.5
210
0.0
220
1.0
230
0.0
  0
CIRCLE
  5
71
  8
DEFAULT
 10
-138.69992
 20
353.0000000000001
 30
0.0
 40
2.5
210
0.0
220
1.0
230
0.0
  0
CIRCLE
  5
72
  8
DEFAULT
 10
-138.69992
 20
379.6
 30
0.0
 40
2.5
210
0.0
220
1.0
230
0.0
  0
CIRCLE
  5
73
  8
DEFAULT
 10
-138.69992
 20
449.4000000000001
 30
0.0
 40
2.5
210
0.0
220
1.0
230
0.0
  0
CIRCLE
  5
74
  8
DEFAULT
 10
-138.69992
 20
421.8000000000001
 30
0.0
 40
2.5
210
0.0
220
1.0
230
0.0
  0
CIRCLE
  5
75
  8
DEFAULT
 10
-138.69992
 20
161.2
 30
0.0
 40
2.5
210
0.0
220
1.0
230
0.0
  0
CIRCLE
  5
76
  8
DEFAULT
 10
-138.69992
 20
187.8000000000001
 30
0.0
 40
2.5
210
0.0
220
1.0
230
0.0
  0
CIRCLE
  5
77
  8
DEFAULT
 10
-138.69992
 20
214.4
 30
0.0
 40
2.5
210
0.0
220
1.0
230
0.0
  0
CIRCLE
  5
78
  8
DEFAULT
 10
-138.69992
 20
284.2
 30
0.0
 40
2.5
210
0.0
220
1.0
230
0.0
  0
CIRCLE
  5
79
  8
DEFAULT
 10
-138.69992
 20
256.6
 30
0.0
 40
2.5
210
0.0
220
1.0
230
0.0
  0
CIRCLE
  5
7A
  8
DEFAULT
 10
128.30008
 20
256.6
 30
0.0
 40
2.5
210
0.0
220
1.0
230
0.0
  0
CIRCLE
  5
7B
  8
DEFAULT
 10
128.30008
 20
284.2
 30
0.0
 40
2.5
210
0.0
220
1.0
230
0.0
  0
CIRCLE
  5
7C
  8
DEFAULT
 10
128.30008
 20
214.4
 30
0.0
 40
2.5
210
0.0
220
1.0
230
0.0
  0
CIRCLE
  5
7D
  8
DEFAULT
 10
128.30008
 20
187.8000000000001
 30
0.0
 40
2.5
210
0.0
220
1.0
230
0.0
  0
CIRCLE
  5
7E
  8
DEFAULT
 10
128.30008
 20
161.2
 30
0.0
 40
2.5
210
0.0
220
1.0
230
0.0
  0
CIRCLE
  5
7F
  8
DEFAULT
 10
128.30008
 20
421.8000000000001
 30
0.0
 40
2.5
210
0.0
220
1.0
230
0.0
  0
CIRCLE
  5
80
  8
DEFAULT
 10
128.30008
 20
449.4000000000001
 30
0.0
 40
2.5
210
0.0
220
1.0
230
0.0
  0
CIRCLE
  5
81
  8
DEFAULT
 10
128.30008
 20
379.6
 30
0.0
 40
2.5
210
0.0
220
1.0
230
0.0
  0
CIRCLE
  5
82
  8
DEFAULT
 10
128.30008
 20
353.0000000000001
 30
0.0
 40
2.5
210
0.0
220
1.0
230
0.0
  0
CIRCLE
  5
83
  8
DEFAULT
 10
128.30008
 20
326.4
 30
0.0
 40
2.5
210
0.0
220
1.0
230
0.0
  0
CIRCLE
  5
84
  8
DEFAULT
 10
128.30008
 20
491.6
 30
0.0
 40
2.5
210
0.0
220
1.0
230
0.0
  0
CIRCLE
  5
85
  8
DEFAULT
 10
128.30008
 20
518.2
 30
0.0
 40
2.5
210
0.0
220
1.0
230
0.0
  0
CIRCLE
  5
86
  8
DEFAULT
 10
128.30008
 20
544.8
 30
0.0
 40
2.5
210
0.0
220
1.0
230
0.0
  0
CIRCLE
  5
87
  8
DEFAULT
 10
128.30008
 20
614.6
 30
0.0
 40
2.5
210
0.0
220
1.0
230
0.0
  0
CIRCLE
  5
88
  8
DEFAULT
 10
128.30008
 20
587.0
 30
0.0
 40
2.5
210
0.0
220
1.0
230
0.0
  0
POLYLINE
  5
89
  8
DEFAULT
 66
     1
 10
0.0
 20
0.0
 30
0.0
 70
     1
210
0.0
220
1.0
230
0.0
  0
VERTEX
  5
8A
  8
DEFAULT
 10
198.05008
 20
636.1999999999999
 30
0.0
  0
VERTEX
  5
8B
  8
DEFAULT
 10
198.05008
 20
117.0
 30
0.0
  0
VERTEX
  5
8C
  8
DEFAULT
 10
-66.94992000000002
 20
117.0
 30
0.0
  0
VERTEX
  5
8D
  8
DEFAULT
 10
-66.94992000000002
 20
636.1999999999999
 30
0.0
  0
SEQEND
  5
8E
  8
DEFAULT
  0
POLYLINE
  5
8F
  8
DEFAULT
 66
     1
 10
0.0
 20
0.0
 30
0.0
 70
     1
210
0.0
220
1.0
230
0.0
  0
VERTEX
  5
90
  8
DEFAULT
 10
-489.94992
 20
636.1999999999999
 30
0.0
  0
VERTEX
  5
91
  8
DEFAULT
 10
-489.94992
 20
117.0
 30
0.0
  0
VERTEX
  5
92
  8
DEFAULT
 10
-564.94992
 20
117.0
 30
0.0
  0
VERTEX
  5
93
  8
DEFAULT
 10
-564.94992
 20
636.1999999999999
 30
0.0
  0
SEQEND
  5
94
  8
DEFAULT
  0
POLYLINE
  5
95
  8
DEFAULT
 66
     1
 10
0.0
 20
0.0
 30
0.0
 70
     1
210
0.0
220
1.0
230
0.0
  0
VERTEX
  5
96
  8
DEFAULT
 10
-412.94992
 20
636.1999999999999
 30
0.0
  0
VERTEX
  5
97
  8
DEFAULT
 10
-412.94992
 20
117.0
 30
0.0
  0
VERTEX
  5
98
  8
DEFAULT
 10
-487.94992
 20
117.0
 30
0.0
  0
VERTEX
  5
99
  8
DEFAULT
 10
-487.94992
 20
636.1999999999999
 30
0.0
  0
SEQEND
  5
9A
  8
DEFAULT
  0
POLYLINE
  5
9B
  8
DEFAULT
 66
     1
 10
0.0
 20
0.0
 30
0.0
 70
     1
210
0.0
220
1.0
230
0.0
  0
VERTEX
  5
9C
  8
DEFAULT
 10
-335.94992
 20
636.1999999999999
 30
0.0
  0
VERTEX
  5
9D
  8
DEFAULT
 10
-335.94992
 20
117.0
 30
0.0
  0
VERTEX
  5
9E
  8
DEFAULT
 10
-410.94992
 20
117.0
 30
0.0
  0
VERTEX
  5
9F
  8
DEFAULT
 10
-410.94992
 20
636.1999999999999
 30
0.0
  0
SEQEND
  5
A0
  8
DEFAULT
  0
POLYLINE
  5
A1
  8
DEFAULT
 66
     1
 10
0.0
 20
0.0
 30
0.0
 70
     1
210
0.0
220
1.0
230
0.0
  0
VERTEX
  5
A2
  8
DEFAULT
 10
-148.94992
 20
604.4
 30
0.0
  0
VERTEX
  5
A3
  8
DEFAULT
 10
-148.94992
 20
479.1999999999999
 30
0.0
 42
-0.4142135623730946
  0
VERTEX
  5
A4
  8
DEFAULT
 10
-158.94992
 20
469.1999999999999
 30
0.0
  0
VERTEX
  5
A5
  8
DEFAULT
 10
-238.94992
 20
469.2
 30
0.0
 42
-0.4142135623731025
  0
VERTEX
  5
A6
  8
DEFAULT
 10
-248.9499200000001
 20
479.1999999999999
 30
0.0
  0
VERTEX
  5
A7
  8
DEFAULT
 10
-248.94992
 20
604.4
 30
0.0
 42
-0.4142135623730917
  0
VERTEX
  5
A8
  8
DEFAULT
 10
-238.94992
 20
614.4
 30
0.0
  0
VERTEX
  5
A9
  8
DEFAULT
 10
-158.9499199999999
 20
614.4
 30
0.0
 42
-0.4142135623730892
  0
SEQEND
  5
AA
  8
DEFAULT
  0
POLYLINE
  5
AB
  8
DEFAULT
 66
     1
 10
0.0
 20
0.0
 30
0.0
 70
     1
210
0.0
220
1.0
230
0.0
  0
VERTEX
  5
AC
  8
DEFAULT
 10
-148.94992
 20
439.1999999999999
 30
0.0
  0
VERTEX
  5
AD
  8
DEFAULT
 10
-148.94992
 20
314.0
 30
0.0
 42
-0.4142135623730946
  0
VERTEX
  5
AE
  8
DEFAULT
 10
-158.94992
 20
304.0
 30
0.0
  0
VERTEX
  5
AF
  8
DEFAULT
 10
-238.94992
 20
304.0
 30
0.0
 42
-0.4142135623731025
  0
VERTEX
  5
B0
  8
DEFAULT
 10
-248.9499200000001
 20
313.9999999999999
 30
0.0
  0
VERTEX
  5
B1
  8
DEFAULT
 10
-248.94992
 20
439.1999999999999
 30
0.0
 42
-0.4142135623730946
  0
VERTEX
  5
B2
  8
DEFAULT
 10
-238.94992
 20
449.1999999999999
 30
0.0
  0
VERTEX
  5
B3
  8
DEFAULT
 10
-158.9499199999999
 20
449.1999999999999
 30
0.0
 42
-0.4142135623730917
  0
SEQEND
  5
B4
  8
DEFAULT
  0
POLYLINE
  5
B5
  8
DEFAULT
 66
     1
 10
0.0
 20
0.0
 30
0.0
 70
     1
210
0.0
220
1.0
230
0.0
  0
VERTEX
  5
B6
  8
DEFAULT
 10
-148.94992
 20
274.0
 30
0.0
  0
VERTEX
  5
B7
  8
DEFAULT
 10
-148.94992
 20
148.8
 30
0.0
 42
-0.414213562373095
  0
VERTEX
  5
B8
  8
DEFAULT
 10
-158.94992
 20
138.8
 30
0.0
  0
VERTEX
  5
B9
  8
DEFAULT
 10
-238.94992
 20
138.8000000000001
 30
0.0
 42
-0.4142135623731013
  0
VERTEX
  5
BA
  8
DEFAULT
 10
-248.9499200000001
 20
148.8
 30
0.0
  0
VERTEX
  5
BB
  8
DEFAULT
 10
-248.94992
 20
274.0
 30
0.0
 42
-0.4142135623730946
  0
VERTEX
  5
BC
  8
DEFAULT
 10
-238.94992
 20
284.0
 30
0.0
  0
VERTEX
  5
BD
  8
DEFAULT
 10
-158.9499199999999
 20
284.0
 30
0.0
 42
-0.4142135623730917
  0
SEQEND
  5
BE
  8
DEFAULT
  0
POLYLINE
  5
BF
  8
DEFAULT
 66
     1
 10
0.0
 20
0.0
 30
0.0
 70
     1
210
0.0
220
1.0
230
0.0
  0
VERTEX
  5
C0
  8
DEFAULT
 10
-236.94992
 20
252.2
 30
0.0
  0
VERTEX
  5
C1
  8
DEFAULT
 10
-236.94992
 20
248.2
 30
0.0
  0
VERTEX
  5
C2
  8
DEFAULT
 10
-241.94992
 20
248.2
 30
0.0
  0
VERTEX
  5
C3
  8
DEFAULT
 10
-241.94992
 20
244.2
 30
0.0
  0
VERTEX
  5
C4
  8
DEFAULT
 10
-246.94992
 20
244.2
 30
0.0
  0
VERTEX
  5
C5
  8
DEFAULT
 10
-246.94992
 20
252.2
 30
0.0
  0
SEQEND
  5
C6
  8
DEFAULT
  0
POLYLINE
  5
C7
  8
DEFAULT
 66
     1
 10
0.0
 20
0.0
 30
0.0
 70
     1
210
0.0
220
1.0
230
0.0
  0
VERTEX
  5
C8
  8
DEFAULT
 10
-236.94992
 20
274.1999999999999
 30
0.0
  0
VERTEX
  5
C9
  8
DEFAULT
 10
-236.94992
 20
270.1999999999999
 30
0.0
  0
VERTEX
  5
CA
  8
DEFAULT
 10
-241.94992
 20
270.1999999999999
 30
0.0
  0
VERTEX
  5
CB
  8
DEFAULT
 10
-241.94992
 20
266.1999999999999
 30
0.0
  0
VERTEX
  5
CC
  8
DEFAULT
 10
-246.94992
 20
266.1999999999999
 30
0.0
  0
VERTEX
  5
CD
  8
DEFAULT
 10
-246.94992
 20
274.1999999999999
 30
0.0
  0
SEQEND
  5
CE
  8
DEFAULT
  0
POLYLINE
  5
CF
  8
DEFAULT
 66
     1
 10
0.0
 20
0.0
 30
0.0
 70
     1
210
0.0
220
1.0
230
0.0
  0
VERTEX
  5
D0
  8
DEFAULT
 10
-223.94992
 20
269.1999999999999
 30
0.0
  0
VERTEX
  5
D1
  8
DEFAULT
 10
-227.94992
 20
269.1999999999999
 30
0.0
  0
VERTEX
  5
D2
  8
DEFAULT
 10
-227.94992
 20
274.1999999999999
 30
0.0
  0
VERTEX
  5
D3
  8
DEFAULT
 10
-231.94992
 20
274.1999999999999
 30
0.0
  0
VERTEX
  5
D4
  8
DEFAULT
 10
-231.94992
 20
269.1999999999999
 30
0.0
  0
VERTEX
  5
D5
  8
DEFAULT
 10
-236.94992
 20
269.1999999999999
 30
0.0
  0
VERTEX
  5
D6
  8
DEFAULT
 10
-236.94992
 20
264.1999999999999
 30
0.0
  0
VERTEX
  5
D7
  8
DEFAULT
 10
-241.94992
 20
264.1999999999999
 30
0.0
  0
VERTEX
  5
D8
  8
DEFAULT
 10
-241.94992
 20
259.1999999999999
 30
0.0
  0
VERTEX
  5
D9
  8
DEFAULT
 10
-246.94992
 20
259.1999999999999
 30
0.0
  0
VERTEX
  5
DA
  8
DEFAULT
 10
-246.94992
 20
254.2
 30
0.0
  0
VERTEX
  5
DB
  8
DEFAULT
 10
-223.94992
 20
254.2
 30
0.0
  0
SEQEND
  5
DC
  8
DEFAULT
  0
POLYLINE
  5
DD
  8
DEFAULT
 66
     1
 10
0.0
 20
0.0
 30
0.0
 70
     1
210
0.0
220
1.0
230
0.0
  0
VERTEX
  5
DE
  8
DEFAULT
 10
-223.94992
 20
247.2
 30
0.0
  0
VERTEX
  5
DF
  8
DEFAULT
 10
-227.94992
 20
247.2
 30
0.0
  0
VERTEX
  5
E0
  8
DEFAULT
 10
-227.94992
 20
252.2
 30
0.0
  0
VERTEX
  5
E1
  8
DEFAULT
 10
-231.94992
 20
252.2
 30
0.0
  0
VERTEX
  5
E2
  8
DEFAULT
 10
-231.94992
 20
247.2
 30
0.0
  0
VERTEX
  5
E3
  8
DEFAULT
 10
-236.94992
 20
247.2
 30
0.0
  0
VERTEX
  5
E4
  8
DEFAULT
 10
-236.94992
 20
242.2
 30
0.0
  0
VERTEX
  5
E5
  8
DEFAULT
 10
-241.94992
 20
242.2
 30
0.0
  0
VERTEX
  5
E6
  8
DEFAULT
 10
-241.94992
 20
237.2
 30
0.0
  0
VERTEX
  5
E7
  8
DEFAULT
 10
-246.94992
 20
237.2
 30
0.0
  0
VERTEX
  5
E8
  8
DEFAULT
 10
-246.94992
 20
232.2
 30
0.0
  0
VERTEX
  5
E9
  8
DEFAULT
 10
-223.94992
 20
232.2
 30
0.0
  0
SEQEND
  5
EA
  8
DEFAULT
  0
POLYLINE
  5
EB
  8
DEFAULT
 66
     1
 10
0.0
 20
0.0
 30
0.0
 70
     1
210
0.0
220
1.0
230
0.0
  0
VERTEX
  5
EC
  8
DEFAULT
 10
-211.94992
 20
252.3999999999999
 30
0.0
  0
VERTEX
  5
ED
  8
DEFAULT
 10
-211.94992
 20
248.3999999999999
 30
0.0
  0
VERTEX
  5
EE
  8
DEFAULT
 10
-216.94992
 20
248.3999999999999
 30
0.0
  0
VERTEX
  5
EF
  8
DEFAULT
 10
-216.94992
 20
244.3999999999999
 30
0.0
  0
VERTEX
  5
F0
  8
DEFAULT
 10
-221.94992
 20
244.3999999999999
 30
0.0
  0
VERTEX
  5
F1
  8
DEFAULT
 10
-221.94992
 20
252.3999999999999
 30
0.0
  0
SEQEND
  5
F2
  8
DEFAULT
  0
POLYLINE
  5
F3
  8
DEFAULT
 66
     1
 10
0.0
 20
0.0
 30
0.0
 70
     1
210
0.0
220
1.0
230
0.0
  0
VERTEX
  5
F4
  8
DEFAULT
 10
-211.94992
 20
274.4
 30
0.0
  0
VERTEX
  5
F5
  8
DEFAULT
 10
-211.94992
 20
270.4
 30
0.0
  0
VERTEX
  5
F6
  8
DEFAULT
 10
-216.94992
 20
270.4
 30
0.0
  0
VERTEX
  5
F7
  8
DEFAULT
 10
-216.94992
 20
266.4
 30
0.0
  0
VERTEX
  5
F8
  8
DEFAULT
 10
-221.94992
 20
266.4
 30
0.0
  0
VERTEX
  5
F9
  8
DEFAULT
 10
-221.94992
 20
274.4
 30
0.0
  0
SEQEND
  5
FA
  8
DEFAULT
  0
POLYLINE
  5
FB
  8
DEFAULT
 66
     1
 10
0.0
 20
0.0
 30
0.0
 70
     1
210
0.0
220
1.0
230
0.0
  0
VERTEX
  5
FC
  8
DEFAULT
 10
-198.94992
 20
269.4
 30
0.0
  0
VERTEX
  5
FD
  8
DEFAULT
 10
-202.94992
 20
269.4
 30
0.0
  0
VERTEX
  5
FE
  8
DEFAULT
 10
-202.94992
 20
274.4
 30
0.0
  0
VERTEX
  5
FF
  8
DEFAULT
 10
-206.94992
 20
274.4
 30
0.0
  0
VERTEX
  5
100
  8
DEFAULT
 10
-206.94992
 20
269.4
 30
0.0
  0
VERTEX
  5
101
  8
DEFAULT
 10
-211.94992
 20
269.4
 30
0.0
  0
VERTEX
  5
102
  8
DEFAULT
 10
-211.94992
 20
264.4
 30
0.0
  0
VERTEX
  5
103
  8
DEFAULT
 10
-216.94992
 20
264.4
 30
0.0
  0
VERTEX
  5
104
  8
DEFAULT
 10
-216.94992
 20
259.4
 30
0.0
  0
VERTEX
  5
105
  8
DEFAULT
 10
-221.94992
 20
259.4
 30
0.0
  0
VERTEX
  5
106
  8
DEFAULT
 10
-221.94992
 20
254.3999999999999
 30
0.0
  0
VERTEX
  5
107
  8
DEFAULT
 10
-198.94992
 20
254.3999999999999
 30
0.0
  0
SEQEND
  5
108
  8
DEFAULT
  0
POLYLINE
  5
109
  8
DEFAULT
 66
     1
 10
0.0
 20
0.0
 30
0.0
 70
     1
210
0.0
220
1.0
230
0.0
  0
VERTEX
  5
10A
  8
DEFAULT
 10
-198.94992
 20
247.3999999999999
 30
0.0
  0
VERTEX
  5
10B
  8
DEFAULT
 10
-202.94992
 20
247.3999999999999
 30
0.0
  0
VERTEX
  5
10C
  8
DEFAULT
 10
-202.94992
 20
252.3999999999999
 30
0.0
  0
VERTEX
  5
10D
  8
DEFAULT
 10
-206.94992
 20
252.3999999999999
 30
0.0
  0
VERTEX
  5
10E
  8
DEFAULT
 10
-206.94992
 20
247.3999999999999
 30
0.0
  0
VERTEX
  5
10F
  8
DEFAULT
 10
-211.94992
 20
247.3999999999999
 30
0.0
  0
VERTEX
  5
110
  8
DEFAULT
 10
-211.94992
 20
242.3999999999999
 30
0.0
  0
VERTEX
  5
111
  8
DEFAULT
 10
-216.94992
 20
242.3999999999999
 30
0.0
  0
VERTEX
  5
112
  8
DEFAULT
 10
-216.94992
 20
237.4
 30
0.0
  0
VERTEX
  5
113
  8
DEFAULT
 10
-221.94992
 20
237.4
 30
0.0
  0
VERTEX
  5
114
  8
DEFAULT
 10
-221.94992
 20
232.4
 30
0.0
  0
VERTEX
  5
115
  8
DEFAULT
 10
-198.94992
 20
232.4
 30
0.0
  0
SEQEND
  5
116
  8
DEFAULT
  0
POLYLINE
  5
117
  8
DEFAULT
 66
     1
 10
0.0
 20
0.0
 30
0.0
 70
     1
210
0.0
220
1.0
230
0.0
  0
VERTEX
  5
118
  8
DEFAULT
 10
-68.94992000000002
 20
636.1999999999999
 30
0.0
  0
VERTEX
  5
119
  8
DEFAULT
 10
-68.94992000000002
 20
117.0
 30
0.0
  0
VERTEX
  5
11A
  8
DEFAULT
 10
-333.94992
 20
117.0
 30
0.0
  0
VERTEX
  5
11B
  8
DEFAULT
 10
-333.94992
 20
636.1999999999999
 30
0.0
  0
SEQEND
  5
11C
  8
DEFAULT
  0
POLYLINE
  5
11D
  8
DEFAULT
 66
     1
 10
0.0
 20
0.0
 30
0.0
 70
     1
210
0.0
220
1.0
230
0.0
  0
VERTEX
  5
11E
  8
DEFAULT
 10
-113.94992
 20
126.3
 30
0.0
  0
VERTEX
  5
11F
  8
DEFAULT
 10
-113.94992
 20
131.3
 30
0.0
  0
VERTEX
  5
120
  8
DEFAULT
 10
-108.94992
 20
131.3
 30
0.0
  0
VERTEX
  5
121
  8
DEFAULT
 10
-108.94992
 20
126.3
 30
0.0
  0
SEQEND
  5
122
  8
DEFAULT
  0
POLYLINE
  5
123
  8
DEFAULT
 66
     1
 10
0.0
 20
0.0
 30
0.0
 70
     1
210
0.0
220
1.0
230
0.0
  0
VERTEX
  5
124
  8
DEFAULT
 10
-113.94992
 20
291.5
 30
0.0
  0
VERTEX
  5
125
  8
DEFAULT
 10
-113.94992
 20
296.5
 30
0.0
  0
VERTEX
  5
126
  8
DEFAULT
 10
-108.94992
 20
296.5
 30
0.0
  0
VERTEX
  5
127
  8
DEFAULT
 10
-108.94992
 20
291.5
 30
0.0
  0
SEQEND
  5
128
  8
DEFAULT
  0
POLYLINE
  5
129
  8
DEFAULT
 66
     1
 10
0.0
 20
0.0
 30
0.0
 70
     1
210
0.0
220
1.0
230
0.0
  0
VERTEX
  5
12A
  8
DEFAULT
 10
-113.94992
 20
456.6999999999999
 30
0.0
  0
VERTEX
  5
12B
  8
DEFAULT
 10
-113.94992
 20
461.6999999999999
 30
0.0
  0
VERTEX
  5
12C
  8
DEFAULT
 10
-108.94992
 20
461.6999999999999
 30
0.0
  0
VERTEX
  5
12D
  8
DEFAULT
 10
-108.94992
 20
456.6999999999999
 30
0.0
  0
SEQEND
  5
12E
  8
DEFAULT
  0
POLYLINE
  5
12F
  8
DEFAULT
 66
     1
 10
0.0
 20
0.0
 30
0.0
 70
     1
210
0.0
220
1.0
230
0.0
  0
VERTEX
  5
130
  8
DEFAULT
 10
-113.94992
 20
621.9
 30
0.0
  0
VERTEX
  5
131
  8
DEFAULT
 10
-113.94992
 20
626.9
 30
0.0
  0
VERTEX
  5
132
  8
DEFAULT
 10
-108.94992
 20
626.9
 30
0.0
  0
VERTEX
  5
133
  8
DEFAULT
 10
-108.94992
 20
621.9
 30
0.0
  0
SEQEND
  5
134
  8
DEFAULT
  0
POLYLINE
  5
135
  8
DEFAULT
 66
     1
 10
0.0
 20
0.0
 30
0.0
 70
     1
210
0.0
220
1.0
230
0.0
  0
VERTEX
  5
136
  8
DEFAULT
 10
-395.94992
 20
621.9
 30
0.0
  0
VERTEX
  5
137
  8
DEFAULT
 10
-395.94992
 20
626.9
 30
0.0
  0
VERTEX
  5
138
  8
DEFAULT
 10
-400.94992
 20
626.9
 30
0.0
  0
VERTEX
  5
139
  8
DEFAULT
 10
-400.94992
 20
621.9
 30
0.0
  0
SEQEND
  5
13A
  8
DEFAULT
  0
POLYLINE
  5
13B
  8
DEFAULT
 66
     1
 10
0.0
 20
0.0
 30
0.0
 70
     1
210
0.0
220
1.0
230
0.0
  0
VERTEX
  5
13C
  8
DEFAULT
 10
-467.94992
 20
621.9
 30
0.0
  0
VERTEX
  5
13D
  8
DEFAULT
 10
-467.94992
 20
626.9
 30
0.0
  0
VERTEX
  5
13E
  8
DEFAULT
 10
-477.94992
 20
626.9
 30
0.0
  0
VERTEX
  5
13F
  8
DEFAULT
 10
-477.94992
 20
621.9
 30
0.0
  0
SEQEND
  5
140
  8
DEFAULT
  0
POLYLINE
  5
141
  8
DEFAULT
 66
     1
 10
0.0
 20
0.0
 30
0.0
 70
     1
210
0.0
220
1.0
230
0.0
  0
VERTEX
  5
142
  8
DEFAULT
 10
-539.94992
 20
621.9
 30
0.0
  0
VERTEX
  5
143
  8
DEFAULT
 10
-539.94992
 20
626.9
 30
0.0
  0
VERTEX
  5
144
  8
DEFAULT
 10
-554.94992
 20
626.9
 30
0.0
  0
VERTEX
  5
145
  8
DEFAULT
 10
-554.94992
 20
621.9
 30
0.0
  0
SEQEND
  5
146
  8
DEFAULT
  0
POLYLINE
  5
147
  8
DEFAULT
 66
     1
 10
0.0
 20
0.0
 30
0.0
 70
     1
210
0.0
220
1.0
230
0.0
  0
VERTEX
  5
148
  8
DEFAULT
 10
153.05008
 20
621.9
 30
0.0
  0
VERTEX
  5
149
  8
DEFAULT
 10
153.05008
 20
626.9
 30
0.0
  0
VERTEX
  5
14A
  8
DEFAULT
 10
158.05008
 20
626.9
 30
0.0
  0
VERTEX
  5
14B
  8
DEFAULT
 10
158.05008
 20
621.9
 30
0.0
  0
SEQEND
  5
14C
  8
DEFAULT
  0
POLYLINE
  5
14D
  8
DEFAULT
 66
     1
 10
0.0
 20
0.0
 30
0.0
 70
     1
210
0.0
220
1.0
230
0.0
  0
VERTEX
  5
14E
  8
DEFAULT
 10
-395.94992
 20
456.6999999999999
 30
0.0
  0
VERTEX
  5
14F
  8
DEFAULT
 10
-395.94992
 20
461.6999999999999
 30
0.0
  0
VERTEX
  5
150
  8
DEFAULT
 10
-400.94992
 20
461.6999999999999
 30
0.0
  0
VERTEX
  5
151
  8
DEFAULT
 10
-400.94992
 20
456.6999999999999
 30
0.0
  0
SEQEND
  5
152
  8
DEFAULT
  0
POLYLINE
  5
153
  8
DEFAULT
 66
     1
 10
0.0
 20
0.0
 30
0.0
 70
     1
210
0.0
220
1.0
230
0.0
  0
VERTEX
  5
154
  8
DEFAULT
 10
-467.94992
 20
456.6999999999999
 30
0.0
  0
VERTEX
  5
155
  8
DEFAULT
 10
-467.94992
 20
461.6999999999999
 30
0.0
  0
VERTEX
  5
156
  8
DEFAULT
 10
-477.94992
 20
461.6999999999999
 30
0.0
  0
VERTEX
  5
157
  8
DEFAULT
 10
-477.94992
 20
456.6999999999999
 30
0.0
  0
SEQEND
  5
158
  8
DEFAULT
  0
POLYLINE
  5
159
  8
DEFAULT
 66
     1
 10
0.0
 20
0.0
 30
0.0
 70
     1
210
0.0
220
1.0
230
0.0
  0
VERTEX
  5
15A
  8
DEFAULT
 10
-539.94992
 20
456.6999999999999
 30
0.0
  0
VERTEX
  5
15B
  8
DEFAULT
 10
-539.94992
 20
461.6999999999999
 30
0.0
  0
VERTEX
  5
15C
  8
DEFAULT
 10
-554.94992
 20
461.6999999999999
 30
0.0
  0
VERTEX
  5
15D
  8
DEFAULT
 10
-554.94992
 20
456.6999999999999
 30
0.0
  0
SEQEND
  5
15E
  8
DEFAULT
  0
POLYLINE
  5
15F
  8
DEFAULT
 66
     1
 10
0.0
 20
0.0
 30
0.0
 70
     1
210
0.0
220
1.0
230
0.0
  0
VERTEX
  5
160
  8
DEFAULT
 10
153.05008
 20
456.6999999999999
 30
0.0
  0
VERTEX
  5
161
  8
DEFAULT
 10
153.05008
 20
461.6999999999999
 30
0.0
  0
VERTEX
  5
162
  8
DEFAULT
 10
158.05008
 20
461.6999999999999
 30
0.0
  0
VERTEX
  5
163
  8
DEFAULT
 10
158.05008
 20
456.6999999999999
 30
0.0
  0
SEQEND
  5
164
  8
DEFAULT
  0
POLYLINE
  5
165
  8
DEFAULT
 66
     1
 10
0.0
 20
0.0
 30
0.0
 70
     1
210
0.0
220
1.0
230
0.0
  0
VERTEX
  5
166
  8
DEFAULT
 10
-395.94992
 20
291.5
 30
0.0
  0
VERTEX
  5
167
  8
DEFAULT
 10
-395.94992
 20
296.5
 30
0.0
  0
VERTEX
  5
168
  8
DEFAULT
 10
-400.94992
 20
296.5
 30
0.0
  0
VERTEX
  5
169
  8
DEFAULT
 10
-400.94992
 20
291.5
 30
0.0
  0
SEQEND
  5
16A
  8
DEFAULT
  0
POLYLINE
  5
16B
  8
DEFAULT
 66
     1
 10
0.0
 20
0.0
 30
0.0
 70
     1
210
0.0
220
1.0
230
0.0
  0
VERTEX
  5
16C
  8
DEFAULT
 10
-467.94992
 20
291.5
 30
0.0
  0
VERTEX
  5
16D
  8
DEFAULT
 10
-467.94992
 20
296.5
 30
0.0
  0
VERTEX
  5
16E
  8
DEFAULT
 10
-477.94992
 20
296.5
 30
0.0
  0
VERTEX
  5
16F
  8
DEFAULT
 10
-477.94992
 20
291.5
 30
0.0
  0
SEQEND
  5
170
  8
DEFAULT
  0
POLYLINE
  5
171
  8
DEFAULT
 66
     1
 10
0.0
 20
0.0
 30
0.0
 70
     1
210
0.0
220
1.0
230
0.0
  0
VERTEX
  5
172
  8
DEFAULT
 10
-539.94992
 20
291.5
 30
0.0
  0
VERTEX
  5
173
  8
DEFAULT
 10
-539.94992
 20
296.5
 30
0.0
  0
VERTEX
  5
174
  8
DEFAULT
 10
-554.94992
 20
296.5
 30
0.0
  0
VERTEX
  5
175
  8
DEFAULT
 10
-554.94992
 20
291.5
 30
0.0
  0
SEQEND
  5
176
  8
DEFAULT
  0
POLYLINE
  5
177
  8
DEFAULT
 66
     1
 10
0.0
 20
0.0
 30
0.0
 70
     1
210
0.0
220
1.0
230
0.0
  0
VERTEX
  5
178
  8
DEFAULT
 10
153.05008
 20
291.5
 30
0.0
  0
VERTEX
  5
179
  8
DEFAULT
 10
153.05008
 20
296.5
 30
0.0
  0
VERTEX
  5
17A
  8
DEFAULT
 10
158.05008
 20
296.5
 30
0.0
  0
VERTEX
  5
17B
  8
DEFAULT
 10
158.05008
 20
291.5
 30
0.0
  0
SEQEND
  5
17C
  8
DEFAULT
  0
POLYLINE
  5
17D
  8
DEFAULT
 66
     1
 10
0.0
 20
0.0
 30
0.0
 70
     1
210
0.0
220
1.0
230
0.0
  0
VERTEX
  5
17E
  8
DEFAULT
 10
153.05008
 20
126.3
 30
0.0
  0
VERTEX
  5
17F
  8
DEFAULT
 10
153.05008
 20
131.3
 30
0.0
  0
VERTEX
  5
180
  8
DEFAULT
 10
158.05008
 20
131.3
 30
0.0
  0
VERTEX
  5
181
  8
DEFAULT
 10
158.05008
 20
126.3
 30
0.0
  0
SEQEND
  5
182
  8
DEFAULT
  0
POLYLINE
  5
183
  8
DEFAULT
 66
     1
 10
0.0
 20
0.0
 30
0.0
 70
     1
210
0.0
220
1.0
230
0.0
  0
VERTEX
  5
184
  8
DEFAULT
 10
-539.94992
 20
126.3
 30
0.0
  0
VERTEX
  5
185
  8
DEFAULT
 10
-539.94992
 20
131.3
 30
0.0
  0
VERTEX
  5
186
  8
DEFAULT
 10
-554.94992
 20
131.3
 30
0.0
  0
VERTEX
  5
187
  8
DEFAULT
 10
-554.94992
 20
126.3
 30
0.0
  0
SEQEND
  5
188
  8
DEFAULT
  0
POLYLINE
  5
189
  8
DEFAULT
 66
     1
 10
0.0
 20
0.0
 30
0.0
 70
     1
210
0.0
220
1.0
230
0.0
  0
VERTEX
  5
18A
  8
DEFAULT
 10
-467.94992
 20
126.3
 30
0.0
  0
VERTEX
  5
18B
  8
DEFAULT
 10
-467.94992
 20
131.3
 30
0.0
  0
VERTEX
  5
18C
  8
DEFAULT
 10
-477.94992
 20
131.3
 30
0.0
  0
VERTEX
  5
18D
  8
DEFAULT
 10
-477.94992
 20
126.3
 30
0.0
  0
SEQEND
  5
18E
  8
DEFAULT
  0
POLYLINE
  5
18F
  8
DEFAULT
 66
     1
 10
0.0
 20
0.0
 30
0.0
 70
     1
210
0.0
220
1.0
230
0.0
  0
VERTEX
  5
190
  8
DEFAULT
 10
-395.94992
 20
126.3
 30
0.0
  0
VERTEX
  5
191
  8
DEFAULT
 10
-395.94992
 20
131.3
 30
0.0
  0
VERTEX
  5
192
  8
DEFAULT
 10
-400.94992
 20
131.3
 30
0.0
  0
VERTEX
  5
193
  8
DEFAULT
 10
-400.94992
 20
126.3
 30
0.0
  0
SEQEND
  5
194
  8
DEFAULT
  0
POLYLINE
  5
195
  8
DEFAULT
 66
     1
 10
0.0
 20
0.0
 30
0.0
 70
     1
210
0.0
220
1.0
230
0.0
  0
VERTEX
  5
196
  8
DEFAULT
 10
-41.94992000000002
 20
621.899999999999
 30
0.0
  0
VERTEX
  5
197
  8
DEFAULT
 10
-41.94992000000002
 20
626.899999999999
 30
0.0
  0
VERTEX
  5
198
  8
DEFAULT
 10
-56.94992000000002
 20
626.899999999999
 30
0.0
  0
VERTEX
  5
199
  8
DEFAULT
 10
-56.94992000000002
 20
621.899999999999
 30
0.0
  0
SEQEND
  5
19A
  8
DEFAULT
  0
POLYLINE
  5
19B
  8
DEFAULT
 66
     1
 10
0.0
 20
0.0
 30
0.0
 70
     1
210
0.0
220
1.0
230
0.0
  0
VERTEX
  5
19C
  8
DEFAULT
 10
-41.94992000000002
 20
456.6999999999992
 30
0.0
  0
VERTEX
  5
19D
  8
DEFAULT
 10
-41.94992000000002
 20
461.6999999999992
 30
0.0
  0
VERTEX
  5
19E
  8
DEFAULT
 10
-56.94992000000002
 20
461.6999999999992
 30
0.0
  0
VERTEX
  5
19F
  8
DEFAULT
 10
-56.94992000000002
 20
456.6999999999992
 30
0.0
  0
SEQEND
  5
1A0
  8
DEFAULT
  0
POLYLINE
  5
1A1
  8
DEFAULT
 66
     1
 10
0.0
 20
0.0
 30
0.0
 70
     1
210
0.0
220
1.0
230
0.0
  0
VERTEX
  5
1A2
  8
DEFAULT
 10
-41.94992000000002
 20
291.4999999999997
 30
0.0
  0
VERTEX
  5
1A3
  8
DEFAULT
 10
-41.94992000000002
 20
296.4999999999997
 30
0.0
  0
VERTEX
  5
1A4
  8
DEFAULT
 10
-56.94992000000002
 20
296.4999999999997
 30
0.0
  0
VERTEX
  5
1A5
  8
DEFAULT
 10
-56.94992000000002
 20
291.4999999999997
 30
0.0
  0
SEQEND
  5
1A6
  8
DEFAULT
  0
POLYLINE
  5
1A7
  8
DEFAULT
 66
     1
 10
0.0
 20
0.0
 30
0.0
 70
     1
210
0.0
220
1.0
230
0.0
  0
VERTEX
  5
1A8
  8
DEFAULT
 10
-41.94992000000002
 20
126.3
 30
0.0
  0
VERTEX
  5
1A9
  8
DEFAULT
 10
-41.94992000000002
 20
131.3
 30
0.0
  0
VERTEX
  5
1AA
  8
DEFAULT
 10
-56.94992000000002
 20
131.3
 30
0.0
  0
VERTEX
  5
1AB
  8
DEFAULT
 10
-56.94992000000002
 20
126.3
 30
0.0
  0
SEQEND
  5
1AC
  8
DEFAULT
  0
CIRCLE
  5
1AD
  8
DEFAULT
 10
-1.94992000000002
 20
133.6
 30
0.0
 40
1.3
210
0.0
220
1.0
230
0.0
  0
CIRCLE
  5
1AE
  8
DEFAULT
 10
182.2500799999998
 20
128.7999999999999
 30
0.0
 40
2.5
210
0.0
220
1.0
230
0.0
  0
CIRCLE
  5
1AF
  8
DEFAULT
 10
-268.94992
 20
133.6
 30
0.0
 40
1.3
210
0.0
220
1.0
230
0.0
  0
CIRCLE
  5
1B0
  8
DEFAULT
 10
-84.7499200000002
 20
128.7999999999999
 30
0.0
 40
2.5
210
0.0
220
1.0
230
0.0
  0
CIRCLE
  5
1B1
  8
DEFAULT
 10
-499.94992
 20
133.6
 30
0.0
 40
1.3
210
0.0
220
1.0
230
0.0
  0
CIRCLE
  5
1B2
  8
DEFAULT
 10
-422.94992
 20
133.6
 30
0.0
 40
1.3
210
0.0
220
1.0
230
0.0
  0
CIRCLE
  5
1B3
  8
DEFAULT
 10
-345.94992
 20
133.6
 30
0.0
 40
1.3
210
0.0
220
1.0
230
0.0
  0
CIRCLE
  5
1B4
  8
DEFAULT
 10
-345.94992
 20
147.3666666740013
 30
0.0
 40
1.3
210
0.0
220
1.0
230
0.0
  0
CIRCLE
  5
1B5
  8
DEFAULT
 10
-345.94992
 20
161.1333333400012
 30
0.0
 40
1.3
210
0.0
220
1.0
230
0.0
  0
CIRCLE
  5
1B6
  8
DEFAULT
 10
-345.94992
 20
174.9000000060011
 30
0.0
 40
1.3
210
0.0
220
1.0
230
0.0
  0
CIRCLE
  5
1B7
  8
DEFAULT
 10
-345.94992
 20
188.666666672001
 30
0.0
 40
1.3
210
0.0
220
1.0
230
0.0
  0
CIRCLE
  5
1B8
  8
DEFAULT
 10
-345.94992
 20
202.4333333380008
 30
0.0
 40
1.3
210
0.0
220
1.0
230
0.0
  0
CIRCLE
  5
1B9
  8
DEFAULT
 10
-345.94992
 20
216.2000000040007
 30
0.0
 40
1.3
210
0.0
220
1.0
230
0.0
  0
CIRCLE
  5
1BA
  8
DEFAULT
 10
-345.94992
 20
229.9666666700006
 30
0.0
 40
1.3
210
0.0
220
1.0
230
0.0
  0
CIRCLE
  5
1BB
  8
DEFAULT
 10
-345.94992
 20
243.7333333360005
 30
0.0
 40
1.3
210
0.0
220
1.0
230
0.0
  0
CIRCLE
  5
1BC
  8
DEFAULT
 10
-345.94992
 20
257.5000000020003
 30
0.0
 40
1.3
210
0.0
220
1.0
230
0.0
  0
CIRCLE
  5
1BD
  8
DEFAULT
 10
-345.94992
 20
271.2666666680002
 30
0.0
 40
1.3
210
0.0
220
1.0
230
0.0
  0
CIRCLE
  5
1BE
  8
DEFAULT
 10
-345.94992
 20
285.0333333340001
 30
0.0
 40
1.3
210
0.0
220
1.0
230
0.0
  0
CIRCLE
  5
1BF
  8
DEFAULT
 10
-345.94992
 20
298.8
 30
0.0
 40
1.3
210
0.0
220
1.0
230
0.0
  0
CIRCLE
  5
1C0
  8
DEFAULT
 10
-422.94992
 20
298.8
 30
0.0
 40
1.3
210
0.0
220
1.0
230
0.0
  0
CIRCLE
  5
1C1
  8
DEFAULT
 10
-422.94992
 20
285.0333333340001
 30
0.0
 40
1.3
210
0.0
220
1.0
230
0.0
  0
CIRCLE
  5
1C2
  8
DEFAULT
 10
-422.94992
 20
271.2666666680002
 30
0.0
 40
1.3
210
0.0
220
1.0
230
0.0
  0
CIRCLE
  5
1C3
  8
DEFAULT
 10
-422.94992
 20
257.5000000020003
 30
0.0
 40
1.3
210
0.0
220
1.0
230
0.0
  0
CIRCLE
  5
1C4
  8
DEFAULT
 10
-422.94992
 20
243.7333333360005
 30
0.0
 40
1.3
210
0.0
220
1.0
230
0.0
  0
CIRCLE
  5
1C5
  8
DEFAULT
 10
-422.94992
 20
229.9666666700006
 30
0.0
 40
1.3
210
0.0
220
1.0
230
0.0
  0
CIRCLE
  5
1C6
  8
DEFAULT
 10
-422.94992
 20
216.2000000040007
 30
0.0
 40
1.3
210
0.0
220
1.0
230
0.0
  0
CIRCLE
  5
1C7
  8
DEFAULT
 10
-422.94992
 20
202.4333333380008
 30
0.0
 40
1.3
210
0.0
220
1.0
230
0.0
  0
CIRCLE
  5
1C8
  8
DEFAULT
 10
-422.94992
 20
188.666666672001
 30
0.0
 40
1.3
210
0.0
220
1.0
230
0.0
  0
CIRCLE
  5
1C9
  8
DEFAULT
 10
-422.94992
 20
174.9000000060011
 30
0.0
 40
1.3
210
0.0
220
1.0
230
0.0
  0
CIRCLE
  5
1CA
  8
DEFAULT
 10
-422.94992
 20
161.1333333400012
 30
0.0
 40
1.3
210
0.0
220
1.0
230
0.0
  0
CIRCLE
  5
1CB
  8
DEFAULT
 10
-422.94992
 20
147.3666666740013
 30
0.0
 40
1.3
210
0.0
220
1.0
230
0.0
  0
CIRCLE
  5
1CC
  8
DEFAULT
 10
-499.94992
 20
298.8
 30
0.0
 40
1.3
210
0.0
220
1.0
230
0.0
  0
CIRCLE
  5
1CD
  8
DEFAULT
 10
-499.94992
 20
285.0333333340001
 30
0.0
 40
1.3
210
0.0
220
1.0
230
0.0
  0
CIRCLE
  5
1CE
  8
DEFAULT
 10
-499.94992
 20
271.2666666680002
 30
0.0
 40
1.3
210
0.0
220
1.0
230
0.0
  0
CIRCLE
  5
1CF
  8
DEFAULT
 10
-499.94992
 20
257.5000000020003
 30
0.0
 40
1.3
210
0.0
220
1.0
230
0.0
  0
CIRCLE
  5
1D0
  8
DEFAULT
 10
-499.94992
 20
243.7333333360005
 30
0.0
 40
1.3
210
0.0
220
1.0
230
0.0
  0
CIRCLE
  5
1D1
  8
DEFAULT
 10
-499.94992
 20
229.9666666700006
 30
0.0
 40
1.3
210
0.0
220
1.0
230
0.0
  0
CIRCLE
  5
1D2
  8
DEFAULT
 10
-499.94992
 20
216.2000000040007
 30
0.0
 40
1.3
210
0.0
220
1.0
230
0.0
  0
CIRCLE
  5
1D3
  8
DEFAULT
 10
-499.94992
 20
202.4333333380008
 30
0.0
 40
1.3
210
0.0
220
1.0
230
0.0
  0
CIRCLE
  5
1D4
  8
DEFAULT
 10
-499.94992
 20
188.666666672001
 30
0.0
 40
1.3
210
0.0
220
1.0
230
0.0
  0
CIRCLE
  5
1D5
  8
DEFAULT
 10
-499.94992
 20
174.9000000060011
 30
0.0
 40
1.3
210
0.0
220
1.0
230
0.0
  0
CIRCLE
  5
1D6
  8
DEFAULT
 10
-499.94992
 20
161.1333333400012
 30
0.0
 40
1.3
210
0.0
220
1.0
230
0.0
  0
CIRCLE
  5
1D7
  8
DEFAULT
 10
-499.94992
 20
147.3666666740013
 30
0.0
 40
1.3
210
0.0
220
1.0
230
0.0
  0
CIRCLE
  5
1D8
  8
DEFAULT
 10
-84.7499200000002
 20
152.3999999999999
 30
0.0
 40
2.5
210
0.0
220
1.0
230
0.0
  0
CIRCLE
  5
1D9
  8
DEFAULT
 10
-84.7499200000002
 20
175.9999999999999
 30
0.0
 40
2.5
210
0.0
220
1.0
230
0.0
  0
CIRCLE
  5
1DA
  8
DEFAULT
 10
-84.7499200000002
 20
199.5999999999999
 30
0.0
 40
2.5
210
0.0
220
1.0
230
0.0
  0
CIRCLE
  5
1DB
  8
DEFAULT
 10
-84.7499200000002
 20
223.1999999999999
 30
0.0
 40
2.5
210
0.0
220
1.0
230
0.0
  0
CIRCLE
  5
1DC
  8
DEFAULT
 10
-84.7499200000002
 20
246.7999999999999
 30
0.0
 40
2.5
210
0.0
220
1.0
230
0.0
  0
CIRCLE
  5
1DD
  8
DEFAULT
 10
-84.7499200000002
 20
270.3999999999999
 30
0.0
 40
2.5
210
0.0
220
1.0
230
0.0
  0
CIRCLE
  5
1DE
  8
DEFAULT
 10
-84.7499200000002
 20
293.9999999999999
 30
0.0
 40
2.5
210
0.0
220
1.0
230
0.0
  0
CIRCLE
  5
1DF
  8
DEFAULT
 10
-268.94992
 20
147.3666666740013
 30
0.0
 40
1.3
210
0.0
220
1.0
230
0.0
  0
CIRCLE
  5
1E0
  8
DEFAULT
 10
-268.94992
 20
161.1333333400012
 30
0.0
 40
1.3
210
0.0
220
1.0
230
0.0
  0
CIRCLE
  5
1E1
  8
DEFAULT
 10
-268.94992
 20
174.9000000060011
 30
0.0
 40
1.3
210
0.0
220
1.0
230
0.0
  0
CIRCLE
  5
1E2
  8
DEFAULT
 10
-268.94992
 20
188.666666672001
 30
0.0
 40
1.3
210
0.0
220
1.0
230
0.0
  0
CIRCLE
  5
1E3
  8
DEFAULT
 10
-268.94992
 20
202.4333333380008
 30
0.0
 40
1.3
210
0.0
220
1.0
230
0.0
  0
CIRCLE
  5
1E4
  8
DEFAULT
 10
-268.94992
 20
216.2000000040007
 30
0.0
 40
1.3
210
0.0
220
1.0
230
0.0
  0
CIRCLE
  5
1E5
  8
DEFAULT
 10
-268.94992
 20
229.9666666700006
 30
0.0
 40
1.3
210
0.0
220
1.0
230
0.0
  0
CIRCLE
  5
1E6
  8
DEFAULT
 10
-268.94992
 20
243.7333333360005
 30
0.0
 40
1.3
210
0.0
220
1.0
230
0.0
  0
CIRCLE
  5
1E7
  8
DEFAULT
 10
-268.94992
 20
257.5000000020003
 30
0.0
 40
1.3
210
0.0
220
1.0
230
0.0
  0
CIRCLE
  5
1E8
  8
DEFAULT
 10
-268.94992
 20
271.2666666680002
 30
0.0
 40
1.3
210
0.0
220
1.0
230
0.0
  0
CIRCLE
  5
1E9
  8
DEFAULT
 10
-268.94992
 20
285.0333333340001
 30
0.0
 40
1.3
210
0.0
220
1.0
230
0.0
  0
CIRCLE
  5
1EA
  8
DEFAULT
 10
-268.94992
 20
298.8
 30
0.0
 40
1.3
210
0.0
220
1.0
230
0.0
  0
CIRCLE
  5
1EB
  8
DEFAULT
 10
182.2500799999998
 20
152.4
 30
0.0
 40
2.5
210
0.0
220
1.0
230
0.0
  0
CIRCLE
  5
1EC
  8
DEFAULT
 10
182.2500799999998
 20
175.9999999999999
 30
0.0
 40
2.5
210
0.0
220
1.0
230
0.0
  0
CIRCLE
  5
1ED
  8
DEFAULT
 10
182.2500799999998
 20
199.5999999999999
 30
0.0
 40
2.5
210
0.0
220
1.0
230
0.0
  0
CIRCLE
  5
1EE
  8
DEFAULT
 10
182.2500799999998
 20
223.1999999999998
 30
0.0
 40
2.5
210
0.0
220
1.0
230
0.0
  0
CIRCLE
  5
1EF
  8
DEFAULT
 10
182.2500799999998
 20
246.7999999999999
 30
0.0
 40
2.5
210
0.0
220
1.0
230
0.0
  0
CIRCLE
  5
1F0
  8
DEFAULT
 10
182.2500799999998
 20
270.3999999999999
 30
0.0
 40
2.5
210
0.0
220
1.0
230
0.0
  0
CIRCLE
  5
1F1
  8
DEFAULT
 10
182.2500799999998
 20
293.9999999999999
 30
0.0
 40
2.5
210
0.0
220
1.0
230
0.0
  0
CIRCLE
  5
1F2
  8
DEFAULT
 10
-1.94992000000002
 20
147.3666666740013
 30
0.0
 40
1.3
210
0.0
220
1.0
230
0.0
  0
CIRCLE
  5
1F3
  8
DEFAULT
 10
-1.94992000000002
 20
161.1333333400012
 30
0.0
 40
1.3
210
0.0
220
1.0
230
0.0
  0
CIRCLE
  5
1F4
  8
DEFAULT
 10
-1.94992000000002
 20
174.9000000060011
 30
0.0
 40
1.3
210
0.0
220
1.0
230
0.0
  0
CIRCLE
  5
1F5
  8
DEFAULT
 10
-1.94992000000002
 20
188.666666672001
 30
0.0
 40
1.3
210
0.0
220
1.0
230
0.0
  0
CIRCLE
  5
1F6
  8
DEFAULT
 10
-1.94992000000002
 20
202.4333333380008
 30
0.0
 40
1.3
210
0.0
220
1.0
230
0.0
  0
CIRCLE
  5
1F7
  8
DEFAULT
 10
-1.94992000000002
 20
216.2000000040007
 30
0.0
 40
1.3
210
0.0
220
1.0
230
0.0
  0
CIRCLE
  5
1F8
  8
DEFAULT
 10
-1.94992000000002
 20
229.9666666700006
 30
0.0
 40
1.3
210
0.0
220
1.0
230
0.0
  0
CIRCLE
  5
1F9
  8
DEFAULT
 10
-1.94992000000002
 20
243.7333333360005
 30
0.0
 40
1.3
210
0.0
220
1.0
230
0.0
  0
CIRCLE
  5
1FA
  8
DEFAULT
 10
-1.94992000000002
 20
257.5000000020003
 30
0.0
 40
1.3
210
0.0
220
1.0
230
0.0
  0
CIRCLE
  5
1FB
  8
DEFAULT
 10
-1.94992000000002
 20
271.2666666680002
 30
0.0
 40
1.3
210
0.0
220
1.0
230
0.0
  0
CIRCLE
  5
1FC
  8
DEFAULT
 10
-1.94992000000002
 20
285.0333333340001
 30
0.0
 40
1.3
210
0.0
220
1.0
230
0.0
  0
CIRCLE
  5
1FD
  8
DEFAULT
 10
-1.94992000000002
 20
298.8
 30
0.0
 40
1.3
210
0.0
220
1.0
230
0.0
  0
CIRCLE
  5
1FE
  8
DEFAULT
 10
-1.94992000000002
 20
464.0
 30
0.0
 40
1.3
210
0.0
220
1.0
230
0.0
  0
CIRCLE
  5
1FF
  8
DEFAULT
 10
-1.94992000000002
 20
450.2333333340001
 30
0.0
 40
1.3
210
0.0
220
1.0
230
0.0
  0
CIRCLE
  5
200
  8
DEFAULT
 10
-1.94992000000002
 20
436.4666666680002
 30
0.0
 40
1.3
210
0.0
220
1.0
230
0.0
  0
CIRCLE
  5
201
  8
DEFAULT
 10
-1.94992000000002
 20
422.7000000020004
 30
0.0
 40
1.3
210
0.0
220
1.0
230
0.0
  0
CIRCLE
  5
202
  8
DEFAULT
 10
-1.94992000000002
 20
408.9333333360005
 30
0.0
 40
1.3
210
0.0
220
1.0
230
0.0
  0
CIRCLE
  5
203
  8
DEFAULT
 10
-1.94992000000002
 20
395.1666666700006
 30
0.0
 40
1.3
210
0.0
220
1.0
230
0.0
  0
CIRCLE
  5
204
  8
DEFAULT
 10
-1.94992000000002
 20
381.4000000040007
 30
0.0
 40
1.3
210
0.0
220
1.0
230
0.0
  0
CIRCLE
  5
205
  8
DEFAULT
 10
-1.94992000000002
 20
367.6333333380009
 30
0.0
 40
1.3
210
0.0
220
1.0
230
0.0
  0
CIRCLE
  5
206
  8
DEFAULT
 10
-1.94992000000002
 20
353.866666672001
 30
0.0
 40
1.3
210
0.0
220
1.0
230
0.0
  0
CIRCLE
  5
207
  8
DEFAULT
 10
-1.94992000000002
 20
340.1000000060011
 30
0.0
 40
1.3
210
0.0
220
1.0
230
0.0
  0
CIRCLE
  5
208
  8
DEFAULT
 10
-1.94992000000002
 20
326.3333333400012
 30
0.0
 40
1.3
210
0.0
220
1.0
230
0.0
  0
CIRCLE
  5
209
  8
DEFAULT
 10
-1.94992000000002
 20
312.5666666740013
 30
0.0
 40
1.3
210
0.0
220
1.0
230
0.0
  0
CIRCLE
  5
20A
  8
DEFAULT
 10
182.2500799999998
 20
459.1999999999999
 30
0.0
 40
2.5
210
0.0
220
1.0
230
0.0
  0
CIRCLE
  5
20B
  8
DEFAULT
 10
182.2500799999998
 20
435.5999999999999
 30
0.0
 40
2.5
210
0.0
220
1.0
230
0.0
  0
CIRCLE
  5
20C
  8
DEFAULT
 10
182.2500799999998
 20
411.9999999999999
 30
0.0
 40
2.5
210
0.0
220
1.0
230
0.0
  0
CIRCLE
  5
20D
  8
DEFAULT
 10
182.2500799999998
 20
388.3999999999999
 30
0.0
 40
2.5
210
0.0
220
1.0
230
0.0
  0
CIRCLE
  5
20E
  8
DEFAULT
 10
182.2500799999998
 20
364.7999999999998
 30
0.0
 40
2.5
210
0.0
220
1.0
230
0.0
  0
CIRCLE
  5
20F
  8
DEFAULT
 10
182.2500799999998
 20
341.1999999999999
 30
0.0
 40
2.5
210
0.0
220
1.0
230
0.0
  0
CIRCLE
  5
210
  8
DEFAULT
 10
182.2500799999998
 20
317.6
 30
0.0
 40
2.5
210
0.0
220
1.0
230
0.0
  0
CIRCLE
  5
211
  8
DEFAULT
 10
-268.94992
 20
464.0
 30
0.0
 40
1.3
210
0.0
220
1.0
230
0.0
  0
CIRCLE
  5
212
  8
DEFAULT
 10
-268.94992
 20
450.2333333340001
 30
0.0
 40
1.3
210
0.0
220
1.0
230
0.0
  0
CIRCLE
  5
213
  8
DEFAULT
 10
-268.94992
 20
436.4666666680002
 30
0.0
 40
1.3
210
0.0
220
1.0
230
0.0
  0
CIRCLE
  5
214
  8
DEFAULT
 10
-268.94992
 20
422.7000000020004
 30
0.0
 40
1.3
210
0.0
220
1.0
230
0.0
  0
CIRCLE
  5
215
  8
DEFAULT
 10
-268.94992
 20
408.9333333360005
 30
0.0
 40
1.3
210
0.0
220
1.0
230
0.0
  0
CIRCLE
  5
216
  8
DEFAULT
 10
-268.94992
 20
395.1666666700006
 30
0.0
 40
1.3
210
0.0
220
1.0
230
0.0
  0
CIRCLE
  5
217
  8
DEFAULT
 10
-268.94992
 20
381.4000000040007
 30
0.0
 40
1.3
210
0.0
220
1.0
230
0.0
  0
CIRCLE
  5
218
  8
DEFAULT
 10
-268.94992
 20
367.6333333380009
 30
0.0
 40
1.3
210
0.0
220
1.0
230
0.0
  0
CIRCLE
  5
219
  8
DEFAULT
 10
-268.94992
 20
353.866666672001
 30
0.0
 40
1.3
210
0.0
220
1.0
230
0.0
  0
CIRCLE
  5
21A
  8
DEFAULT
 10
-268.94992
 20
340.1000000060011
 30
0.0
 40
1.3
210
0.0
220
1.0
230
0.0
  0
CIRCLE
  5
21B
  8
DEFAULT
 10
-268.94992
 20
326.3333333400012
 30
0.0
 40
1.3
210
0.0
220
1.0
230
0.0
  0
CIRCLE
  5
21C
  8
DEFAULT
 10
-268.94992
 20
312.5666666740013
 30
0.0
 40
1.3
210
0.0
220
1.0
230
0.0
  0
CIRCLE
  5
21D
  8
DEFAULT
 10
-84.7499200000002
 20
459.1999999999998
 30
0.0
 40
2.5
210
0.0
220
1.0
230
0.0
  0
CIRCLE
  5
21E
  8
DEFAULT
 10
-84.7499200000002
 20
435.5999999999999
 30
0.0
 40
2.5
210
0.0
220
1.0
230
0.0
  0
CIRCLE
  5
21F
  8
DEFAULT
 10
-84.7499200000002
 20
411.9999999999999
 30
0.0
 40
2.5
210
0.0
220
1.0
230
0.0
  0
CIRCLE
  5
220
  8
DEFAULT
 10
-84.7499200000002
 20
388.3999999999999
 30
0.0
 40
2.5
210
0.0
220
1.0
230
0.0
  0
CIRCLE
  5
221
  8
DEFAULT
 10
-84.7499200000002
 20
364.7999999999998
 30
0.0
 40
2.5
210
0.0
220
1.0
230
0.0
  0
CIRCLE
  5
222
  8
DEFAULT
 10
-84.7499200000002
 20
341.1999999999998
 30
0.0
 40
2.5
210
0.0
220
1.0
230
0.0
  0
CIRCLE
  5
223
  8
DEFAULT
 10
-84.7499200000002
 20
317.5999999999999
 30
0.0
 40
2.5
210
0.0
220
1.0
230
0.0
  0
CIRCLE
  5
224
  8
DEFAULT
 10
-499.94992
 20
312.5666666740013
 30
0.0
 40
1.3
210
0.0
220
1.0
230
0.0
  0
CIRCLE
  5
225
  8
DEFAULT
 10
-499.94992
 20
326.3333333400012
 30
0.0
 40
1.3
210
0.0
220
1.0
230
0.0
  0
CIRCLE
  5
226
  8
DEFAULT
 10
-499.94992
 20
340.1000000060011
 30
0.0
 40
1.3
210
0.0
220
1.0
230
0.0
  0
CIRCLE
  5
227
  8
DEFAULT
 10
-499.94992
 20
353.866666672001
 30
0.0
 40
1.3
210
0.0
220
1.0
230
0.0
  0
CIRCLE
  5
228
  8
DEFAULT
 10
-499.94992
 20
367.6333333380009
 30
0.0
 40
1.3
210
0.0
220
1.0
230
0.0
  0
CIRCLE
  5
229
  8
DEFAULT
 10
-499.94992
 20
381.4000000040007
 30
0.0
 40
1.3
210
0.0
220
1.0
230
0.0
  0
CIRCLE
  5
22A
  8
DEFAULT
 10
-499.94992
 20
395.1666666700006
 30
0.0
 40
1.3
210
0.0
220
1.0
230
0.0
  0
CIRCLE
  5
22B
  8
DEFAULT
 10
-499.94992
 20
408.9333333360005
 30
0.0
 40
1.3
210
0.0
220
1.0
230
0.0
  0
CIRCLE
  5
22C
  8
DEFAULT
 10
-499.94992
 20
422.7000000020004
 30
0.0
 40
1.3
210
0.0
220
1.0
230
0.0
  0
CIRCLE
  5
22D
  8
DEFAULT
 10
-499.94992
 20
436.4666666680002
 30
0.0
 40
1.3
210
0.0
220
1.0
230
0.0
  0
CIRCLE
  5
22E
  8
DEFAULT
 10
-499.94992
 20
450.2333333340001
 30
0.0
 40
1.3
210
0.0
220
1.0
230
0.0
  0
CIRCLE
  5
22F
  8
DEFAULT
 10
-499.94992
 20
464.0
 30
0.0
 40
1.3
210
0.0
220
1.0
230
0.0
  0
CIRCLE
  5
230
  8
DEFAULT
 10
-422.94992
 20
312.5666666740013
 30
0.0
 40
1.3
210
0.0
220
1.0
230
0.0
  0
CIRCLE
  5
231
  8
DEFAULT
 10
-422.94992
 20
326.3333333400012
 30
0.0
 40
1.3
210
0.0
220
1.0
230
0.0
  0
CIRCLE
  5
232
  8
DEFAULT
 10
-422.94992
 20
340.1000000060011
 30
0.0
 40
1.3
210
0.0
220
1.0
230
0.0
  0
CIRCLE
  5
233
  8
DEFAULT
 10
-422.94992
 20
353.866666672001
 30
0.0
 40
1.3
210
0.0
220
1.0
230
0.0
  0
CIRCLE
  5
234
  8
DEFAULT
 10
-422.94992
 20
367.6333333380009
 30
0.0
 40
1.3
210
0.0
220
1.0
230
0.0
  0
CIRCLE
  5
235
  8
DEFAULT
 10
-422.94992
 20
381.4000000040007
 30
0.0
 40
1.3
210
0.0
220
1.0
230
0.0
  0
CIRCLE
  5
236
  8
DEFAULT
 10
-422.94992
 20
395.1666666700006
 30
0.0
 40
1.3
210
0.0
220
1.0
230
0.0
  0
CIRCLE
  5
237
  8
DEFAULT
 10
-422.94992
 20
408.9333333360005
 30
0.0
 40
1.3
210
0.0
220
1.0
230
0.0
  0
CIRCLE
  5
238
  8
DEFAULT
 10
-422.94992
 20
422.7000000020004
 30
0.0
 40
1.3
210
0.0
220
1.0
230
0.0
  0
CIRCLE
  5
239
  8
DEFAULT
 10
-422.94992
 20
436.4666666680002
 30
0.0
 40
1.3
210
0.0
220
1.0
230
0.0
  0
CIRCLE
  5
23A
  8
DEFAULT
 10
-422.94992
 20
450.2333333340001
 30
0.0
 40
1.3
210
0.0
220
1.0
230
0.0
  0
CIRCLE
  5
23B
  8
DEFAULT
 10
-422.94992
 20
464.0
 30
0.0
 40
1.3
210
0.0
220
1.0
230
0.0
  0
CIRCLE
  5
23C
  8
DEFAULT
 10
-345.94992
 20
464.0
 30
0.0
 40
1.3
210
0.0
220
1.0
230
0.0
  0
CIRCLE
  5
23D
  8
DEFAULT
 10
-345.94992
 20
450.2333333340001
 30
0.0
 40
1.3
210
0.0
220
1.0
230
0.0
  0
CIRCLE
  5
23E
  8
DEFAULT
 10
-345.94992
 20
436.4666666680002
 30
0.0
 40
1.3
210
0.0
220
1.0
230
0.0
  0
CIRCLE
  5
23F
  8
DEFAULT
 10
-345.94992
 20
422.7000000020004
 30
0.0
 40
1.3
210
0.0
220
1.0
230
0.0
  0
CIRCLE
  5
240
  8
DEFAULT
 10
-345.94992
 20
408.9333333360005
 30
0.0
 40
1.3
210
0.0
220
1.0
230
0.0
  0
CIRCLE
  5
241
  8
DEFAULT
 10
-345.94992
 20
395.1666666700006
 30
0.0
 40
1.3
210
0.0
220
1.0
230
0.0
  0
CIRCLE
  5
242
  8
DEFAULT
 10
-345.94992
 20
381.4000000040007
 30
0.0
 40
1.3
210
0.0
220
1.0
230
0.0
  0
CIRCLE
  5
243
  8
DEFAULT
 10
-345.94992
 20
367.6333333380009
 30
0.0
 40
1.3
210
0.0
220
1.0
230
0.0
  0
CIRCLE
  5
244
  8
DEFAULT
 10
-345.94992
 20
353.866666672001
 30
0.0
 40
1.3
210
0.0
220
1.0
230
0.0
  0
CIRCLE
  5
245
  8
DEFAULT
 10
-345.94992
 20
340.1000000060011
 30
0.0
 40
1.3
210
0.0
220
1.0
230
0.0
  0
CIRCLE
  5
246
  8
DEFAULT
 10
-345.94992
 20
326.3333333400012
 30
0.0
 40
1.3
210
0.0
220
1.0
230
0.0
  0
CIRCLE
  5
247
  8
DEFAULT
 10
-345.94992
 20
312.5666666740013
 30
0.0
 40
1.3
210
0.0
220
1.0
230
0.0
  0
CIRCLE
  5
248
  8
DEFAULT
 10
-1.94992000000002
 20
629.1999999999999
 30
0.0
 40
1.3
210
0.0
220
1.0
230
0.0
  0
CIRCLE
  5
249
  8
DEFAULT
 10
-1.94992000000002
 20
615.433333334
 30
0.0
 40
1.3
210
0.0
220
1.0
230
0.0
  0
CIRCLE
  5
24A
  8
DEFAULT
 10
-1.94992000000002
 20
601.6666666680002
 30
0.0
 40
1.3
210
0.0
220
1.0
230
0.0
  0
CIRCLE
  5
24B
  8
DEFAULT
 10
-1.94992000000002
 20
587.9000000020003
 30
0.0
 40
1.3
210
0.0
220
1.0
230
0.0
  0
CIRCLE
  5
24C
  8
DEFAULT
 10
-1.94992000000002
 20
574.1333333360004
 30
0.0
 40
1.3
210
0.0
220
1.0
230
0.0
  0
CIRCLE
  5
24D
  8
DEFAULT
 10
-1.94992000000002
 20
560.3666666700005
 30
0.0
 40
1.3
210
0.0
220
1.0
230
0.0
  0
CIRCLE
  5
24E
  8
DEFAULT
 10
-1.94992000000002
 20
546.6000000040007
 30
0.0
 40
1.3
210
0.0
220
1.0
230
0.0
  0
CIRCLE
  5
24F
  8
DEFAULT
 10
-1.94992000000002
 20
532.8333333380008
 30
0.0
 40
1.3
210
0.0
220
1.0
230
0.0
  0
CIRCLE
  5
250
  8
DEFAULT
 10
-1.94992000000002
 20
519.0666666720009
 30
0.0
 40
1.3
210
0.0
220
1.0
230
0.0
  0
CIRCLE
  5
251
  8
DEFAULT
 10
-1.94992000000002
 20
505.300000006001
 30
0.0
 40
1.3
210
0.0
220
1.0
230
0.0
  0
CIRCLE
  5
252
  8
DEFAULT
 10
-1.94992000000002
 20
491.5333333400011
 30
0.0
 40
1.3
210
0.0
220
1.0
230
0.0
  0
CIRCLE
  5
253
  8
DEFAULT
 10
-1.94992000000002
 20
477.7666666740013
 30
0.0
 40
1.3
210
0.0
220
1.0
230
0.0
  0
CIRCLE
  5
254
  8
DEFAULT
 10
182.2500799999998
 20
624.3999999999999
 30
0.0
 40
2.5
210
0.0
220
1.0
230
0.0
  0
CIRCLE
  5
255
  8
DEFAULT
 10
182.2500799999998
 20
600.7999999999998
 30
0.0
 40
2.5
210
0.0
220
1.0
230
0.0
  0
CIRCLE
  5
256
  8
DEFAULT
 10
182.2500799999998
 20
577.1999999999998
 30
0.0
 40
2.5
210
0.0
220
1.0
230
0.0
  0
CIRCLE
  5
257
  8
DEFAULT
 10
182.2500799999998
 20
553.5999999999998
 30
0.0
 40
2.5
210
0.0
220
1.0
230
0.0
  0
CIRCLE
  5
258
  8
DEFAULT
 10
182.2500799999998
 20
529.9999999999999
 30
0.0
 40
2.5
210
0.0
220
1.0
230
0.0
  0
CIRCLE
  5
259
  8
DEFAULT
 10
182.2500799999998
 20
506.3999999999999
 30
0.0
 40
2.5
210
0.0
220
1.0
230
0.0
  0
CIRCLE
  5
25A
  8
DEFAULT
 10
182.2500799999998
 20
482.8
 30
0.0
 40
2.5
210
0.0
220
1.0
230
0.0
  0
CIRCLE
  5
25B
  8
DEFAULT
 10
-268.94992
 20
629.1999999999999
 30
0.0
 40
1.3
210
0.0
220
1.0
230
0.0
  0
CIRCLE
  5
25C
  8
DEFAULT
 10
-268.94992
 20
615.433333334
 30
0.0
 40
1.3
210
0.0
220
1.0
230
0.0
  0
CIRCLE
  5
25D
  8
DEFAULT
 10
-268.94992
 20
601.6666666680002
 30
0.0
 40
1.3
210
0.0
220
1.0
230
0.0
  0
CIRCLE
  5
25E
  8
DEFAULT
 10
-268.94992
 20
587.9000000020003
 30
0.0
 40
1.3
210
0.0
220
1.0
230
0.0
  0
CIRCLE
  5
25F
  8
DEFAULT
 10
-268.94992
 20
574.1333333360004
 30
0.0
 40
1.3
210
0.0
220
1.0
230
0.0
  0
CIRCLE
  5
260
  8
DEFAULT
 10
-268.94992
 20
560.3666666700005
 30
0.0
 40
1.3
210
0.0
220
1.0
230
0.0
  0
CIRCLE
  5
261
  8
DEFAULT
 10
-268.94992
 20
546.6000000040007
 30
0.0
 40
1.3
210
0.0
220
1.0
230
0.0
  0
CIRCLE
  5
262
  8
DEFAULT
 10
-268.94992
 20
532.8333333380008
 30
0.0
 40
1.3
210
0.0
220
1.0
230
0.0
  0
CIRCLE
  5
263
  8
DEFAULT
 10
-268.94992
 20
519.0666666720009
 30
0.0
 40
1.3
210
0.0
220
1.0
230
0.0
  0
CIRCLE
  5
264
  8
DEFAULT
 10
-268.94992
 20
505.300000006001
 30
0.0
 40
1.3
210
0.0
220
1.0
230
0.0
  0
CIRCLE
  5
265
  8
DEFAULT
 10
-268.94992
 20
491.5333333400011
 30
0.0
 40
1.3
210
0.0
220
1.0
230
0.0
  0
CIRCLE
  5
266
  8
DEFAULT
 10
-268.94992
 20
477.7666666740013
 30
0.0
 40
1.3
210
0.0
220
1.0
230
0.0
  0
CIRCLE
  5
267
  8
DEFAULT
 10
-84.7499200000002
 20
624.3999999999997
 30
0.0
 40
2.5
210
0.0
220
1.0
230
0.0
  0
CIRCLE
  5
268
  8
DEFAULT
 10
-84.7499200000002
 20
600.7999999999998
 30
0.0
 40
2.5
210
0.0
220
1.0
230
0.0
  0
CIRCLE
  5
269
  8
DEFAULT
 10
-84.7499200000002
 20
577.1999999999999
 30
0.0
 40
2.5
210
0.0
220
1.0
230
0.0
  0
CIRCLE
  5
26A
  8
DEFAULT
 10
-84.7499200000002
 20
553.5999999999999
 30
0.0
 40
2.5
210
0.0
220
1.0
230
0.0
  0
CIRCLE
  5
26B
  8
DEFAULT
 10
-84.7499200000002
 20
529.9999999999999
 30
0.0
 40
2.5
210
0.0
220
1.0
230
0.0
  0
CIRCLE
  5
26C
  8
DEFAULT
 10
-84.7499200000002
 20
506.3999999999999
 30
0.0
 40
2.5
210
0.0
220
1.0
230
0.0
  0
CIRCLE
  5
26D
  8
DEFAULT
 10
-84.7499200000002
 20
482.8
 30
0.0
 40
2.5
210
0.0
220
1.0
230
0.0
  0
CIRCLE
  5
26E
  8
DEFAULT
 10
-499.94992
 20
477.7666666740013
 30
0.0
 40
1.3
210
0.0
220
1.0
230
0.0
  0
CIRCLE
  5
26F
  8
DEFAULT
 10
-499.94992
 20
491.5333333400011
 30
0.0
 40
1.3
210
0.0
220
1.0
230
0.0
  0
CIRCLE
  5
270
  8
DEFAULT
 10
-499.94992
 20
505.300000006001
 30
0.0
 40
1.3
210
0.0
220
1.0
230
0.0
  0
CIRCLE
  5
271
  8
DEFAULT
 10
-499.94992
 20
519.0666666720009
 30
0.0
 40
1.3
210
0.0
220
1.0
230
0.0
  0
CIRCLE
  5
272
  8
DEFAULT
 10
-499.94992
 20
532.8333333380008
 30
0.0
 40
1.3
210
0.0
220
1.0
230
0.0
  0
CIRCLE
  5
273
  8
DEFAULT
 10
-499.94992
 20
546.6000000040007
 30
0.0
 40
1.3
210
0.0
220
1.0
230
0.0
  0
CIRCLE
  5
274
  8
DEFAULT
 10
-499.94992
 20
560.3666666700005
 30
0.0
 40
1.3
210
0.0
220
1.0
230
0.0
  0
CIRCLE
  5
275
  8
DEFAULT
 10
-499.94992
 20
574.1333333360004
 30
0.0
 40
1.3
210
0.0
220
1.0
230
0.0
  0
CIRCLE
  5
276
  8
DEFAULT
 10
-499.94992
 20
587.9000000020003
 30
0.0
 40
1.3
210
0.0
220
1.0
230
0.0
  0
CIRCLE
  5
277
  8
DEFAULT
 10
-499.94992
 20
601.6666666680002
 30
0.0
 40
1.3
210
0.0
220
1.0
230
0.0
  0
CIRCLE
  5
278
  8
DEFAULT
 10
-499.94992
 20
615.433333334
 30
0.0
 40
1.3
210
0.0
220
1.0
230
0.0
  0
CIRCLE
  5
279
  8
DEFAULT
 10
-499.94992
 20
629.1999999999999
 30
0.0
 40
1.3
210
0.0
220
1.0
230
0.0
  0
CIRCLE
  5
27A
  8
DEFAULT
 10
-422.94992
 20
477.7666666740013
 30
0.0
 40
1.3
210
0.0
220
1.0
230
0.0
  0
CIRCLE
  5
27B
  8
DEFAULT
 10
-422.94992
 20
491.5333333400011
 30
0.0
 40
1.3
210
0.0
220
1.0
230
0.0
  0
CIRCLE
  5
27C
  8
DEFAULT
 10
-422.94992
 20
505.300000006001
 30
0.0
 40
1.3
210
0.0
220
1.0
230
0.0
  0
CIRCLE
  5
27D
  8
DEFAULT
 10
-422.94992
 20
519.0666666720009
 30
0.0
 40
1.3
210
0.0
220
1.0
230
0.0
  0
CIRCLE
  5
27E
  8
DEFAULT
 10
-422.94992
 20
532.8333333380008
 30
0.0
 40
1.3
210
0.0
220
1.0
230
0.0
  0
CIRCLE
  5
27F
  8
DEFAULT
 10
-422.94992
 20
546.6000000040007
 30
0.0
 40
1.3
210
0.0
220
1.0
230
0.0
  0
CIRCLE
  5
280
  8
DEFAULT
 10
-422.94992
 20
560.3666666700005
 30
0.0
 40
1.3
210
0.0
220
1.0
230
0.0
  0
CIRCLE
  5
281
  8
DEFAULT
 10
-422.94992
 20
574.1333333360004
 30
0.0
 40
1.3
210
0.0
220
1.0
230
0.0
  0
CIRCLE
  5
282
  8
DEFAULT
 10
-422.94992
 20
587.9000000020003
 30
0.0
 40
1.3
210
0.0
220
1.0
230
0.0
  0
CIRCLE
  5
283
  8
DEFAULT
 10
-422.94992
 20
601.6666666680002
 30
0.0
 40
1.3
210
0.0
220
1.0
230
0.0
  0
CIRCLE
  5
284
  8
DEFAULT
 10
-422.94992
 20
615.433333334
 30
0.0
 40
1.3
210
0.0
220
1.0
230
0.0
  0
CIRCLE
  5
285
  8
DEFAULT
 10
-422.94992
 20
629.1999999999999
 30
0.0
 40
1.3
210
0.0
220
1.0
230
0.0
  0
CIRCLE
  5
286
  8
DEFAULT
 10
-345.94992
 20
629.1999999999999
 30
0.0
 40
1.3
210
0.0
220
1.0
230
0.0
  0
CIRCLE
  5
287
  8
DEFAULT
 10
-345.94992
 20
615.433333334
 30
0.0
 40
1.3
210
0.0
220
1.0
230
0.0
  0
CIRCLE
  5
288
  8
DEFAULT
 10
-345.94992
 20
601.6666666680002
 30
0.0
 40
1.3
210
0.0
220
1.0
230
0.0
  0
CIRCLE
  5
289
  8
DEFAULT
 10
-345.94992
 20
587.9000000020003
 30
0.0
 40
1.3
210
0.0
220
1.0
230
0.0
  0
CIRCLE
  5
28A
  8
DEFAULT
 10
-345.94992
 20
574.1333333360004
 30
0.0
 40
1.3
210
0.0
220
1.0
230
0.0
  0
CIRCLE
  5
28B
  8
DEFAULT
 10
-345.94992
 20
560.3666666700005
 30
0.0
 40
1.3
210
0.0
220
1.0
230
0.0
  0
CIRCLE
  5
28C
  8
DEFAULT
 10
-345.94992
 20
546.6000000040007
 30
0.0
 40
1.3
210
0.0
220
1.0
230
0.0
  0
CIRCLE
  5
28D
  8
DEFAULT
 10
-345.94992
 20
532.8333333380008
 30
0.0
 40
1.3
210
0.0
220
1.0
230
0.0
  0
CIRCLE
  5
28E
  8
DEFAULT
 10
-345.94992
 20
519.0666666720009
 30
0.0
 40
1.3
210
0.0
220
1.0
230
0.0
  0
CIRCLE
  5
28F
  8
DEFAULT
 10
-345.94992
 20
505.300000006001
 30
0.0
 40
1.3
210
0.0
220
1.0
230
0.0
  0
CIRCLE
  5
290
  8
DEFAULT
 10
-345.94992
 20
491.5333333400011
 30
0.0
 40
1.3
210
0.0
220
1.0
230
0.0
  0
CIRCLE
  5
291
  8
DEFAULT
 10
-345.94992
 20
477.7666666740013
 30
0.0
 40
1.3
210
0.0
220
1.0
230
0.0
  0
POLYLINE
  5
292
  8
DEFAULT
 66
     1
 10
0.0
 20
0.0
 30
0.0
 70
     1
210
0.0
220
1.0
230
0.0
  0
VERTEX
  5
293
  8
DEFAULT
 10
-303.94992
 20
126.3
 30
0.0
  0
VERTEX
  5
294
  8
DEFAULT
 10
-303.94992
 20
131.3
 30
0.0
  0
VERTEX
  5
295
  8
DEFAULT
 10
-323.94992
 20
131.3
 30
0.0
  0
VERTEX
  5
296
  8
DEFAULT
 10
-323.94992
 20
126.3
 30
0.0
  0
SEQEND
  5
297
  8
DEFAULT
  0
POLYLINE
  5
298
  8
DEFAULT
 66
     1
 10
0.0
 20
0.0
 30
0.0
 70
     1
210
0.0
220
1.0
230
0.0
  0
VERTEX
  5
299
  8
DEFAULT
 10
-303.94992
 20
291.4999999999997
 30
0.0
  0
VERTEX
  5
29A
  8
DEFAULT
 10
-303.94992
 20
296.4999999999997
 30
0.0
  0
VERTEX
  5
29B
  8
DEFAULT
 10
-323.94992
 20
296.4999999999997
 30
0.0
  0
VERTEX
  5
29C
  8
DEFAULT
 10
-323.94992
 20
291.4999999999997
 30
0.0
  0
SEQEND
  5
29D
  8
DEFAULT
  0
POLYLINE
  5
29E
  8
DEFAULT
 66
     1
 10
0.0
 20
0.0
 30
0.0
 70
     1
210
0.0
220
1.0
230
0.0
  0
VERTEX
  5
29F
  8
DEFAULT
 10
-303.94992
 20
456.6999999999992
 30
0.0
  0
VERTEX
  5
2A0
  8
DEFAULT
 10
-303.94992
 20
461.6999999999992
 30
0.0
  0
VERTEX
  5
2A1
  8
DEFAULT
 10
-323.94992
 20
461.6999999999992
 30
0.0
  0
VERTEX
  5
2A2
  8
DEFAULT
 10
-323.94992
 20
456.6999999999992
 30
0.0
  0
SEQEND
  5
2A3
  8
DEFAULT
  0
POLYLINE
  5
2A4
  8
DEFAULT
 66
     1
 10
0.0
 20
0.0
 30
0.0
 70
     1
210
0.0
220
1.0
230
0.0
  0
VERTEX
  5
2A5
  8
DEFAULT
 10
-303.94992
 20
621.899999999999
 30
0.0
  0
VERTEX
  5
2A6
  8
DEFAULT
 10
-303.94992
 20
626.899999999999
 30
0.0
  0
VERTEX
  5
2A7
  8
DEFAULT
 10
-323.94992
 20
626.899999999999
 30
0.0
  0
VERTEX
  5
2A8
  8
DEFAULT
 10
-323.94992
 20
621.899999999999
 30
0.0
  0
SEQEND
  5
2A9
  8
DEFAULT
  0
ENDSEC
  0
EOF
